<svg id="Layer_1" data-name="Layer 1" xmlns="http://www.w3.org/2000/svg" viewBox="0 0 58 44"><defs><style>.cls-1{fill:#fff;stroke:#4c4b4b;}.cls-1,.cls-2{stroke-miterlimit:10;}.cls-2{fill:none;stroke:#4d4d4d;}</style></defs><title>pil_hojre</title><path class="cls-1" d="M80.5,74.5h-45a12,12,0,0,1-12-12v-19a12,12,0,0,1,12-12h45v43Z" transform="translate(-23 -31)"/><g id="circle-arrow-right"><path class="cls-2" d="M58.75,53.23A12.19,12.19,0,1,0,46.56,65.42,12.19,12.19,0,0,0,58.75,53.23ZM52.5,54.67a0.5,0.5,0,0,1-.5.5H46.5V58.7c0,0.28-.17.36-0.38,0.18l-6.4-5.33a0.4,0.4,0,0,1,0-.64l6.4-5.33c0.21-.18.38-0.1,0.38,0.18v3.41H52a0.5,0.5,0,0,1,.5.5v3Z" transform="translate(-23 -31)"/></g></svg>