<svg id="Layer_1" data-name="Layer 1" xmlns="http://www.w3.org/2000/svg" viewBox="0 0 58 44"><defs><style>.cls-1{fill:#fff;stroke:#4c4b4b;}.cls-1,.cls-2{stroke-miterlimit:10;}.cls-2{fill:none;stroke:#4d4d4d;}</style></defs><title>pil_venstre</title><path class="cls-1" d="M3.5,3.5h45a12,12,0,0,1,12,12v19a12,12,0,0,1-12,12H3.5V3.5Z" transform="translate(-3 -3)"/><g id="circle-arrow-right"><path class="cls-2" d="M25.25,24.77A12.19,12.19,0,1,0,37.44,12.58,12.19,12.19,0,0,0,25.25,24.77Zm6.25-1.44a0.5,0.5,0,0,1,.5-0.5h5.5V19.3c0-.28.17-0.36,0.38-0.18l6.4,5.33a0.4,0.4,0,0,1,0,.64l-6.4,5.33c-0.21.18-.38,0.1-0.38-0.18V26.83H32a0.5,0.5,0,0,1-.5-0.5v-3Z" transform="translate(-3 -3)"/></g></svg>