<svg id="Layer_1" data-name="Layer 1" xmlns="http://www.w3.org/2000/svg" viewBox="0 0 44 58"><defs><style>.cls-1{fill:#fff;stroke:#4c4b4b;}.cls-1,.cls-2{stroke-miterlimit:10;}.cls-2{fill:none;stroke:#4d4d4d;}</style></defs><title>pil_op</title><path class="cls-1" d="M10.5,71.5v-45a12,12,0,0,1,12-12h19a12,12,0,0,1,12,12v45h-43Z" transform="translate(-10 -14)"/><g id="circle-arrow-right"><path class="cls-2" d="M31.77,49.75A12.19,12.19,0,1,0,19.58,37.56,12.19,12.19,0,0,0,31.77,49.75ZM30.33,43.5a0.5,0.5,0,0,1-.5-0.5V37.5H26.3c-0.28,0-.36-0.17-0.18-0.38l5.33-6.4a0.4,0.4,0,0,1,.64,0l5.33,6.4c0.18,0.21.1,0.38-.18,0.38H33.83V43a0.5,0.5,0,0,1-.5.5h-3Z" transform="translate(-10 -14)"/></g></svg>