<svg id="BG" xmlns="http://www.w3.org/2000/svg" viewBox="0 0 185 145"><defs><style>.cls-1{fill:#fff;}.cls-2{fill:#f9f206;stroke:#666;stroke-miterlimit:10;}</style></defs><title>person3</title><rect class="cls-1" width="185" height="145"/><path class="cls-2" d="M43.12,67.73a5.67,5.67,0,0,1-1.87,4.58,8,8,0,0,1-5.33,1.59H34.23v6.6H30.29V61.94h5.93a7.89,7.89,0,0,1,5.14,1.45A5.3,5.3,0,0,1,43.12,67.73Zm-8.89,2.95h1.29A4.31,4.31,0,0,0,38.24,70a2.51,2.51,0,0,0,.9-2.09,2.58,2.58,0,0,0-.75-2A3.54,3.54,0,0,0,36,65.16H34.23v5.51Z" transform="translate(-0.5 0)"/><path class="cls-2" d="M63.47,71.19q0,4.61-2.29,7.08a8.47,8.47,0,0,1-6.55,2.48,8.47,8.47,0,0,1-6.55-2.48Q45.8,75.8,45.8,71.17t2.29-7.08a8.57,8.57,0,0,1,6.57-2.44,8.45,8.45,0,0,1,6.54,2.46Q63.47,66.57,63.47,71.19Zm-13.55,0a7.75,7.75,0,0,0,1.18,4.68,4.13,4.13,0,0,0,3.53,1.57q4.71,0,4.71-6.26t-4.68-6.27a4.16,4.16,0,0,0-3.54,1.58A7.72,7.72,0,0,0,49.92,71.19Z" transform="translate(-0.5 0)"/><path class="cls-2" d="M67.31,80.5V61.94h3.94V77.25h7.53V80.5H67.31Z" transform="translate(-0.5 0)"/><path class="cls-2" d="M82,80.5V61.94h3.94V80.5H82Z" transform="translate(-0.5 0)"/><path class="cls-2" d="M97.77,80.5H93.83V65.21h-5V61.94h14v3.28h-5V80.5Z" transform="translate(-0.5 0)"/><path class="cls-2" d="M120.6,80.5h-4.47l-4.86-7.82-1.66,1.19V80.5h-3.94V61.94h3.94v8.49l1.55-2.18,5-6.31h4.37l-6.47,8.21Z" transform="translate(-0.5 0)"/><path class="cls-2" d="M133.62,80.5H122.93V61.94h10.69v3.22h-6.75v4.08h6.28v3.22h-6.28v4.79h6.75V80.5Z" transform="translate(-0.5 0)"/><path class="cls-2" d="M141.43,73.38V80.5h-3.94V61.94h5.41q3.78,0,5.6,1.38a5.49,5.49,0,0,1,.91,7.1,6,6,0,0,1-2.55,2q4.19,6.26,5.46,8.09H148l-4.43-7.12h-2.09Zm0-3.2h1.27a4.86,4.86,0,0,0,2.75-.62,2.22,2.22,0,0,0,.89-2,2,2,0,0,0-.91-1.88,5.51,5.51,0,0,0-2.81-.56h-1.19v5Z" transform="translate(-0.5 0)"/></svg>