<svg id="BG" xmlns="http://www.w3.org/2000/svg" viewBox="0 0 185 145"><defs><style>.cls-1{fill:#fff;}.cls-2{fill:#64e2dc;}.cls-3{fill:#4d4d4d;}</style></defs><title>185x145_test5</title><rect class="cls-1" width="185" height="145"/><g id="girl"><path class="cls-2" d="M123.26,88.22c-2.67-1.61-12.6-9-19.87-12.69V68.18l9.05-3.36,7.5,11.4,8.37-8.42-12.66-4.21-5-9.38V39.67c-1.06-9.47-8.44-18.18-18.18-18.18A18,18,0,0,0,74.3,39.67V54.21l-5,9.38L56.68,67.8,65,76.22l7.49-11.4,9,3.36v7.35C74.3,79.2,64.39,86.61,61.72,88.22c-6.38,3.84-5.57,9.63-5.57,9.63h0v1.82a1.82,1.82,0,0,0,1.82,1.82H127a1.82,1.82,0,0,0,1.82-1.82V97.85S129.64,92.05,123.26,88.22Z" transform="translate(-0.5 0)"/></g><path class="cls-3" d="M69.77,114.87v6.47a3.52,3.52,0,0,1-1,2.69,4,4,0,0,1-2.84,1,3.78,3.78,0,0,1-2.79-1,3.65,3.65,0,0,1-1-2.71v-6.44h1.16v6.52a2.57,2.57,0,0,0,.68,1.92,2.76,2.76,0,0,0,2,.67,2.66,2.66,0,0,0,1.95-.67,2.59,2.59,0,0,0,.68-1.93v-6.51h1.16Z" transform="translate(-0.5 0)"/><path class="cls-3" d="M80.23,124.86H78.9l-5.46-8.39H73.38q0.11,1.48.11,2.71v5.68H72.42v-10h1.31l5.45,8.35h0.05q0-.18-0.06-1.19t0-1.43v-5.74h1.09v10Z" transform="translate(-0.5 0)"/><path class="cls-3" d="M87.37,119.63h3.4v4.86a10.91,10.91,0,0,1-1.61.38,12.24,12.24,0,0,1-1.9.13,4.61,4.61,0,0,1-3.53-1.35,5.32,5.32,0,0,1-1.26-3.78,5.71,5.71,0,0,1,.63-2.73,4.23,4.23,0,0,1,1.8-1.79,5.84,5.84,0,0,1,2.75-.62,7.54,7.54,0,0,1,3,.59l-0.45,1a6.66,6.66,0,0,0-2.6-.57,3.73,3.73,0,0,0-2.85,1.09,4.22,4.22,0,0,0-1,3,4.31,4.31,0,0,0,1,3.07,3.81,3.81,0,0,0,2.9,1,8.64,8.64,0,0,0,2-.24v-3.08H87.37v-1Z" transform="translate(-0.5 0)"/><path class="cls-3" d="M101.14,119.77a5,5,0,0,1-1.34,3.78,5.31,5.31,0,0,1-3.87,1.31H93.17v-10h3.06A4.49,4.49,0,0,1,101.14,119.77Zm-1.23,0a4,4,0,0,0-1-2.95,3.93,3.93,0,0,0-2.92-1H94.33v8h1.42a4.3,4.3,0,0,0,3.12-1A4,4,0,0,0,99.91,119.81Z" transform="translate(-0.5 0)"/><path class="cls-3" d="M112,119.85a5.5,5.5,0,0,1-1.21,3.77,4.27,4.27,0,0,1-3.37,1.37,4.32,4.32,0,0,1-3.41-1.35,5.54,5.54,0,0,1-1.2-3.81,5.48,5.48,0,0,1,1.2-3.78,4.35,4.35,0,0,1,3.42-1.34,4.26,4.26,0,0,1,3.36,1.37A5.5,5.5,0,0,1,112,119.85Zm-8,0a4.74,4.74,0,0,0,.86,3.08,3.53,3.53,0,0,0,5,0,6,6,0,0,0,0-6.14,3,3,0,0,0-2.5-1,3.08,3.08,0,0,0-2.53,1A4.7,4.7,0,0,0,104.08,119.85Z" transform="translate(-0.5 0)"/><path class="cls-3" d="M118.7,124.86L115.31,116h-0.05q0.1,1.05.1,2.5v6.36h-1.07v-10H116l3.17,8.24h0.05l3.19-8.24h1.74v10H123v-6.44q0-1.11.1-2.41h-0.05l-3.42,8.85H118.7Z" transform="translate(-0.5 0)"/></svg>