<svg id="BG" xmlns="http://www.w3.org/2000/svg" viewBox="0 0 185 145"><defs><style>.cls-1{fill:#fff;}.cls-2{fill:#4d4d4d;}.cls-3{fill:#73f9a9;}</style></defs><title>miljo3</title><rect class="cls-1" width="185" height="145"/><g id="SKOV"><path class="cls-2" d="M79.12,122a2.45,2.45,0,0,1-1,2.06,4.15,4.15,0,0,1-2.6.74,6.5,6.5,0,0,1-2.73-.46v-1.12a7.24,7.24,0,0,0,1.34.41,7,7,0,0,0,1.44.15,2.9,2.9,0,0,0,1.75-.44,1.45,1.45,0,0,0,.59-1.23,1.57,1.57,0,0,0-.21-0.85,1.92,1.92,0,0,0-.7-0.61,9.8,9.8,0,0,0-1.49-.64,4.74,4.74,0,0,1-2-1.18A2.61,2.61,0,0,1,73,117a2.22,2.22,0,0,1,.87-1.84,3.61,3.61,0,0,1,2.3-.68,6.78,6.78,0,0,1,2.74.55l-0.36,1a6.19,6.19,0,0,0-2.41-.52,2.33,2.33,0,0,0-1.44.4,1.31,1.31,0,0,0-.52,1.1,1.69,1.69,0,0,0,.19.85,1.8,1.8,0,0,0,.65.61,8,8,0,0,0,1.39.61,5.5,5.5,0,0,1,2.16,1.2A2.37,2.37,0,0,1,79.12,122Z" transform="translate(-0.5 0)"/><path class="cls-2" d="M88.39,124.61H87l-3.64-4.85-1,.93v3.92H81.17v-10h1.16v5l4.53-5h1.37l-4,4.34Z" transform="translate(-0.5 0)"/><path class="cls-2" d="M98.44,119.6a5.5,5.5,0,0,1-1.21,3.77,4.27,4.27,0,0,1-3.37,1.37,4.32,4.32,0,0,1-3.41-1.35,5.54,5.54,0,0,1-1.2-3.81,5.48,5.48,0,0,1,1.2-3.78,4.35,4.35,0,0,1,3.42-1.34,4.26,4.26,0,0,1,3.36,1.37A5.5,5.5,0,0,1,98.44,119.6Zm-8,0a4.74,4.74,0,0,0,.86,3.08,3.53,3.53,0,0,0,5,0,6,6,0,0,0,0-6.14,3,3,0,0,0-2.5-1,3.08,3.08,0,0,0-2.53,1A4.7,4.7,0,0,0,90.47,119.6Z" transform="translate(-0.5 0)"/><path class="cls-2" d="M106.37,114.62h1.25l-3.6,10h-1.15l-3.58-10h1.23l2.3,6.47a18.14,18.14,0,0,1,.63,2.17,18,18,0,0,1,.64-2.21Z" transform="translate(-0.5 0)"/><g id="tree-deciduous"><path class="cls-3" d="M131.76,80.1A6.39,6.39,0,0,0,128,74.29a4.73,4.73,0,0,0,.55-2.19,4.8,4.8,0,0,0-4.8-4.8,4.74,4.74,0,0,0-1.65.31,5.58,5.58,0,0,0-10.66-1.78,7.15,7.15,0,0,0-8,9.61,4.78,4.78,0,0,0-.2,9.25,7.32,7.32,0,0,0-.29,1.8c-0.21,5.36,6.4,8.7,9.6,4.19V100.9l-1.6,1.6h11.2l-1.6-1.6V90.05c3.2,2.95,6.6.35,6.4-3.55,0-.08,0-0.15,0-0.22A6.39,6.39,0,0,0,131.76,80.1Z" transform="translate(-0.5 0)"/></g><g id="tree-conifer"><path class="cls-3" d="M119.32,86.44c0.86,0,1.06-.49.45-1.09L105,70.88h11.07c0.86,0,1.06-.49.45-1.09L101.78,55.31h8c0.85,0,1.05-.49.45-1.09L95.44,39.75h4.85c0.85,0,1.05-.49.44-1.09L89.3,27.45a1.6,1.6,0,0,0-2.22,0L75.65,38.66c-0.61.6-.41,1.09,0.44,1.09h4.85L66.19,54.23c-0.61.6-.41,1.09,0.45,1.09h8L59.85,69.79c-0.61.6-.41,1.09,0.45,1.09H71.37L56.61,85.35c-0.61.6-.41,1.09,0.45,1.09H80.41V98.89L77.3,102H99.08L96,98.89V86.44h23.35Z" transform="translate(-0.5 0)"/></g><g id="tree-deciduous-2" data-name="tree-deciduous"><path class="cls-3" d="M76.11,85.7a4.79,4.79,0,0,0-2.81-4.36,3.55,3.55,0,0,0,.41-1.64,3.6,3.6,0,0,0-3.6-3.6,3.56,3.56,0,0,0-1.24.23,4.18,4.18,0,0,0-8-1.33,5.36,5.36,0,0,0-6,7.21,3.58,3.58,0,0,0-.15,6.94,5.49,5.49,0,0,0-.22,1.35c-0.16,4,4.8,6.53,7.2,3.15v7.65l-1.2,1.2h8.4l-1.2-1.2V93.17c2.4,2.21,5,.26,4.8-2.67,0-.06,0-0.11,0-0.16A4.79,4.79,0,0,0,76.11,85.7Z" transform="translate(-0.5 0)"/></g></g></svg>